# xmcd
#
# Track frame offsets:
#	150
#	11562
#	21657
#	32382
#	41759
#	54458
#	64144
#	73212
#	82713
#	93971
#	106107
#	116196
#	126963
#	135732
#	147456
#	157335
#	168827
#	178982
#	189677
#	201413
#
# Disc length: 2826 seconds
#
# Revision: 1
# Processed by: cddbd v1.5.2PL0 Copyright (c) Steve Scherf et al.
# Submitted via: audiograbber 1.83.01
#
DISCID=290b0814
DTITLE=Horton, Johnny - The Essential Recordings - CD1
DYEAR=2012
DGENRE=Country
TTITLE0=The Battle Of New Orleans
TTITLE1=Honky Tonk Man
TTITLE2=Big Wheels Rollin'
TTITLE3=Gobbler The Houn' Dog
TTITLE4=Johnny Freedom (Freedom Land)
TTITLE5=Let's Take The Long Way Home
TTITLE6=I'm A One Woman Man
TTITLE7=Broken Hearted Gypsy
TTITLE8=Cherokee Boogie
TTITLE9=The Train With The Rhumba Beat
TTITLE10=The Woman I Need
TTITLE11=Sinking Of The Reuben James
TTITLE12=The Wild One
TTITLE13=Lost Highway
TTITLE14=Two Red Lips And Warm Red Wine
TTITLE15=Mr. Moonlight
TTITLE16=It's A Long Rocky Road
TTITLE17=Take Me Like I Am
TTITLE18=Smokey Joe's Barbecue
TTITLE19=Johnny Reb
EXTD=The Primo Collection 2CD Set
EXTT0=
EXTT1=
EXTT2=
EXTT3=
EXTT4=
EXTT5=
EXTT6=
EXTT7=
EXTT8=
EXTT9=
EXTT10=
EXTT11=
EXTT12=
EXTT13=
EXTT14=
EXTT15=
EXTT16=
EXTT17=
EXTT18=
EXTT19=
PLAYORDER=
